# xmcd CD database file
#
# Track frame offsets:
#	150
#	47394
#	77539
#	112294
#	158931
#	217372
#	262603
#
# Disc length: 4177 seconds
#
# Revision: 0
# Processed by: cddbd v1.5.2PL0 Copyright (c) Steve Scherf et al.
# Submitted via: CDex 1.70beta3
#
DISCID=59104f07
DTITLE=Joe Morris - Shock Axis
DYEAR=2015
DGENRE=Jazz
TTITLE0=Hurricane Point
TTITLE1=Giant Eye
TTITLE2=Wherewithall
TTITLE3=Skera
TTITLE4=Outer Layer
TTITLE5=Red Vision
TTITLE6=Lift
EXTD=YEAR: 2015
EXTT0=
EXTT1=
EXTT2=
EXTT3=
EXTT4=
EXTT5=
EXTT6=
PLAYORDER=
